{
	"asset":{
		"generator":"Khronos glTF Blender I/O v4.3.47",
		"version":"2.0"
	},
	"extensionsUsed":[
		"KHR_materials_specular"
	],
	"scene":0,
	"scenes":[
		{
			"name":"Scene",
			"nodes":[
				4
			]
		}
	],
	"nodes":[
		{
			"mesh":0,
			"name":"MS_K_mega_building_base",
			"translation":[
				0,
				-120893.203125,
				0
			]
		},
		{
			"mesh":1,
			"name":"MS_K_tenzero_tex_metal_panels_a",
			"rotation":[
				1,
				0,
				0,
				7.549790126404332e-08
			],
			"scale":[
				0.5870749950408936,
				0.5870749950408936,
				0.5870749950408936
			],
			"translation":[
				-215233.4375,
				112966.5078125,
				-72699.5
			]
		},
		{
			"mesh":2,
			"name":"MS_K_tenzero_tex_tech_panel_b",
			"rotation":[
				1,
				0,
				0,
				7.549790126404332e-08
			],
			"scale":[
				0.5870749950408936,
				0.5870749950408936,
				0.5870749950408936
			],
			"translation":[
				-215233.5,
				112966.5078125,
				-72699.5
			]
		},
		{
			"mesh":3,
			"name":"MS_K_tenzero_tex_tech_panel_b_lights",
			"rotation":[
				1,
				0,
				0,
				7.549790126404332e-08
			],
			"scale":[
				0.5870749950408936,
				0.5870749950408936,
				0.5870749950408936
			],
			"translation":[
				-215233.4375,
				112966.5078125,
				-72699.5
			]
		},
		{
			"children":[
				0,
				1,
				2,
				3
			],
			"name":"Mega Structure K",
			"rotation":[
				0,
				0.7071067094802856,
				0,
				0.7071068286895752
			],
			"scale":[
				0.0010000000474974513,
				0.0010000000474974513,
				0.0010000000474974513
			],
			"translation":[
				0,
				120.20121765136719,
				5.254162260825979e-06
			]
		}
	],
	"materials":[
		{
			"doubleSided":true,
			"extensions":{
				"KHR_materials_specular":{
					"specularColorFactor":[
						2.0,
						2.0,
						2.0
					]
				}
			},
			"name":"tenzero_tex_concrete_b",
			"normalTexture":{
				"index":0
			},
			"pbrMetallicRoughness":{
				"baseColorTexture":{
					"index":1
				},
				"metallicRoughnessTexture":{
					"index":2
				},
				"roughnessFactor":0.5527864098548889
			}
		},
		{
			"doubleSided":true,
			"extensions":{
				"KHR_materials_specular":{
					"specularColorFactor":[
						2.0,
						2.0,
						2.0
					]
				}
			},
			"name":"tenzero_tex_metal_panels_a.001",
			"normalTexture":{
				"index":3
			},
			"pbrMetallicRoughness":{
				"baseColorTexture":{
					"index":4
				},
				"metallicRoughnessTexture":{
					"index":5
				},
				"roughnessFactor":0.5527864098548889
			}
		},
		{
			"doubleSided":true,
			"extensions":{
				"KHR_materials_specular":{
					"specularColorFactor":[
						2.0,
						2.0,
						2.0
					]
				}
			},
			"name":"tenzero_tex_metal_panels_a",
			"pbrMetallicRoughness":{
				"baseColorTexture":{
					"index":6
				},
				"metallicRoughnessTexture":{
					"index":7
				},
				"roughnessFactor":0.5527864098548889
			}
		},
		{
			"doubleSided":true,
			"extensions":{
				"KHR_materials_specular":{
					"specularColorFactor":[
						2.0,
						2.0,
						2.0
					]
				}
			},
			"name":"tenzero_tex_tech_panel_b",
			"normalTexture":{
				"index":8
			},
			"pbrMetallicRoughness":{
				"baseColorTexture":{
					"index":9
				},
				"metallicRoughnessTexture":{
					"index":10
				},
				"roughnessFactor":0.5527864098548889
			}
		},
		{
			"doubleSided":true,
			"extensions":{
				"KHR_materials_specular":{
					"specularColorFactor":[
						2.0,
						2.0,
						2.0
					]
				}
			},
			"name":"tenzero_tex_tech_panel_b_lights",
			"normalTexture":{
				"index":11
			},
			"pbrMetallicRoughness":{
				"baseColorTexture":{
					"index":12
				},
				"metallicRoughnessTexture":{
					"index":13
				},
				"roughnessFactor":0.5527864098548889
			}
		}
	],
	"meshes":[
		{
			"name":"Mesh.002",
			"primitives":[
				{
					"attributes":{
						"POSITION":0,
						"NORMAL":1,
						"TEXCOORD_0":2
					},
					"indices":3,
					"material":0
				},
				{
					"attributes":{
						"POSITION":4,
						"NORMAL":5,
						"TEXCOORD_0":6
					},
					"indices":7,
					"material":1
				}
			]
		},
		{
			"name":"Mesh.001",
			"primitives":[
				{
					"attributes":{
						"POSITION":8,
						"NORMAL":9,
						"TEXCOORD_0":10,
						"COLOR_0":11,
						"COLOR_1":12
					},
					"indices":13,
					"material":2
				}
			]
		},
		{
			"name":"Mesh.003",
			"primitives":[
				{
					"attributes":{
						"POSITION":14,
						"NORMAL":15,
						"TEXCOORD_0":16,
						"COLOR_0":17,
						"COLOR_1":18
					},
					"indices":19,
					"material":3
				}
			]
		},
		{
			"name":"Mesh",
			"primitives":[
				{
					"attributes":{
						"POSITION":20,
						"NORMAL":21,
						"TEXCOORD_0":22,
						"COLOR_0":23,
						"COLOR_1":24
					},
					"indices":25,
					"material":4
				}
			]
		}
	],
	"textures":[
		{
			"sampler":0,
			"source":0
		},
		{
			"sampler":0,
			"source":1
		},
		{
			"sampler":0,
			"source":2
		},
		{
			"sampler":0,
			"source":3
		},
		{
			"sampler":0,
			"source":4
		},
		{
			"sampler":0,
			"source":5
		},
		{
			"sampler":0,
			"source":4
		},
		{
			"sampler":0,
			"source":5
		},
		{
			"sampler":0,
			"source":6
		},
		{
			"sampler":0,
			"source":7
		},
		{
			"sampler":0,
			"source":8
		},
		{
			"sampler":0,
			"source":6
		},
		{
			"sampler":0,
			"source":7
		},
		{
			"sampler":0,
			"source":9
		}
	],
	"images":[
		{
			"mimeType":"image/png",
			"name":"tenzero_tex_concrete_b_Normal",
			"uri":"tenzero_tex_concrete_b_Normal.png"
		},
		{
			"mimeType":"image/png",
			"name":"tenzero_tex_concrete_b_Diffuse",
			"uri":"tenzero_tex_concrete_b_Diffuse.png"
		},
		{
			"mimeType":"image/png",
			"name":"tenzero_tex_concrete_b_Reflection",
			"uri":"tenzero_tex_concrete_b_Reflection.png"
		},
		{
			"mimeType":"image/png",
			"name":"tenzero_tex_metal_panels_a_Normal",
			"uri":"tenzero_tex_metal_panels_a_Normal.png"
		},
		{
			"mimeType":"image/png",
			"name":"tenzero_tex_metal_panels_a_Diffuse",
			"uri":"tenzero_tex_metal_panels_a_Diffuse.png"
		},
		{
			"mimeType":"image/png",
			"name":"tenzero_tex_metal_panels_a_Reflection",
			"uri":"tenzero_tex_metal_panels_a_Reflection.png"
		},
		{
			"mimeType":"image/png",
			"name":"tenzero_tex_tech_panel_b_Normal",
			"uri":"tenzero_tex_tech_panel_b_Normal.png"
		},
		{
			"mimeType":"image/png",
			"name":"tenzero_tex_tech_panel_b_Diffuse",
			"uri":"tenzero_tex_tech_panel_b_Diffuse.png"
		},
		{
			"mimeType":"image/png",
			"name":"tenzero_tex_metal_b_Reflection",
			"uri":"tenzero_tex_metal_b_Reflection.png"
		},
		{
			"mimeType":"image/png",
			"name":"tenzero_tex_tech_panel_b_Reflection",
			"uri":"tenzero_tex_tech_panel_b_Reflection.png"
		}
	],
	"accessors":[
		{
			"bufferView":0,
			"componentType":5126,
			"count":170223,
			"max":[
				250000,
				18962.79296875,
				250000
			],
			"min":[
				-250000,
				0,
				-250000
			],
			"type":"VEC3"
		},
		{
			"bufferView":1,
			"componentType":5126,
			"count":170223,
			"type":"VEC3"
		},
		{
			"bufferView":2,
			"componentType":5126,
			"count":170223,
			"type":"VEC2"
		},
		{
			"bufferView":3,
			"componentType":5125,
			"count":264657,
			"type":"SCALAR"
		},
		{
			"bufferView":4,
			"componentType":5126,
			"count":30144,
			"max":[
				249062.5,
				18583.8359375,
				249062.5
			],
			"min":[
				-249062.5,
				1.61030912399292,
				-249062.5
			],
			"type":"VEC3"
		},
		{
			"bufferView":5,
			"componentType":5126,
			"count":30144,
			"type":"VEC3"
		},
		{
			"bufferView":6,
			"componentType":5126,
			"count":30144,
			"type":"VEC2"
		},
		{
			"bufferView":7,
			"componentType":5123,
			"count":45216,
			"type":"SCALAR"
		},
		{
			"bufferView":8,
			"componentType":5126,
			"count":4755,
			"max":[
				727685.6875,
				397301.5,
				228012.890625
			],
			"min":[
				14213.310546875,
				-19966.51171875,
				-494276.25
			],
			"type":"VEC3"
		},
		{
			"bufferView":9,
			"componentType":5126,
			"count":4755,
			"type":"VEC3"
		},
		{
			"bufferView":10,
			"componentType":5126,
			"count":4755,
			"type":"VEC2"
		},
		{
			"bufferView":11,
			"componentType":5121,
			"count":4755,
			"normalized":true,
			"type":"VEC4"
		},
		{
			"bufferView":12,
			"componentType":5123,
			"count":4755,
			"normalized":true,
			"type":"VEC4"
		},
		{
			"bufferView":13,
			"componentType":5123,
			"count":7428,
			"type":"SCALAR"
		},
		{
			"bufferView":14,
			"componentType":5126,
			"count":44390,
			"max":[
				747561.625,
				404811.75,
				235523.109375
			],
			"min":[
				-5662.71875,
				-6774.25,
				-501786.4375
			],
			"type":"VEC3"
		},
		{
			"bufferView":15,
			"componentType":5126,
			"count":44390,
			"type":"VEC3"
		},
		{
			"bufferView":16,
			"componentType":5126,
			"count":44390,
			"type":"VEC2"
		},
		{
			"bufferView":17,
			"componentType":5121,
			"count":44390,
			"normalized":true,
			"type":"VEC4"
		},
		{
			"bufferView":18,
			"componentType":5123,
			"count":44390,
			"normalized":true,
			"type":"VEC4"
		},
		{
			"bufferView":19,
			"componentType":5123,
			"count":78756,
			"type":"SCALAR"
		},
		{
			"bufferView":20,
			"componentType":5126,
			"count":1406,
			"max":[
				728057.625,
				349822.65625,
				180534.015625
			],
			"min":[
				13841.4375,
				2512.71875,
				-446797.375
			],
			"type":"VEC3"
		},
		{
			"bufferView":21,
			"componentType":5126,
			"count":1406,
			"type":"VEC3"
		},
		{
			"bufferView":22,
			"componentType":5126,
			"count":1406,
			"type":"VEC2"
		},
		{
			"bufferView":23,
			"componentType":5121,
			"count":1406,
			"normalized":true,
			"type":"VEC4"
		},
		{
			"bufferView":24,
			"componentType":5123,
			"count":1406,
			"normalized":true,
			"type":"VEC4"
		},
		{
			"bufferView":25,
			"componentType":5123,
			"count":2064,
			"type":"SCALAR"
		}
	],
	"bufferViews":[
		{
			"buffer":0,
			"byteLength":2042676,
			"byteOffset":0,
			"target":34962
		},
		{
			"buffer":0,
			"byteLength":2042676,
			"byteOffset":2042676,
			"target":34962
		},
		{
			"buffer":0,
			"byteLength":1361784,
			"byteOffset":4085352,
			"target":34962
		},
		{
			"buffer":0,
			"byteLength":1058628,
			"byteOffset":5447136,
			"target":34963
		},
		{
			"buffer":0,
			"byteLength":361728,
			"byteOffset":6505764,
			"target":34962
		},
		{
			"buffer":0,
			"byteLength":361728,
			"byteOffset":6867492,
			"target":34962
		},
		{
			"buffer":0,
			"byteLength":241152,
			"byteOffset":7229220,
			"target":34962
		},
		{
			"buffer":0,
			"byteLength":90432,
			"byteOffset":7470372,
			"target":34963
		},
		{
			"buffer":0,
			"byteLength":57060,
			"byteOffset":7560804,
			"target":34962
		},
		{
			"buffer":0,
			"byteLength":57060,
			"byteOffset":7617864,
			"target":34962
		},
		{
			"buffer":0,
			"byteLength":38040,
			"byteOffset":7674924,
			"target":34962
		},
		{
			"buffer":0,
			"byteLength":19020,
			"byteOffset":7712964,
			"target":34962
		},
		{
			"buffer":0,
			"byteLength":38040,
			"byteOffset":7731984,
			"target":34962
		},
		{
			"buffer":0,
			"byteLength":14856,
			"byteOffset":7770024,
			"target":34963
		},
		{
			"buffer":0,
			"byteLength":532680,
			"byteOffset":7784880,
			"target":34962
		},
		{
			"buffer":0,
			"byteLength":532680,
			"byteOffset":8317560,
			"target":34962
		},
		{
			"buffer":0,
			"byteLength":355120,
			"byteOffset":8850240,
			"target":34962
		},
		{
			"buffer":0,
			"byteLength":177560,
			"byteOffset":9205360,
			"target":34962
		},
		{
			"buffer":0,
			"byteLength":355120,
			"byteOffset":9382920,
			"target":34962
		},
		{
			"buffer":0,
			"byteLength":157512,
			"byteOffset":9738040,
			"target":34963
		},
		{
			"buffer":0,
			"byteLength":16872,
			"byteOffset":9895552,
			"target":34962
		},
		{
			"buffer":0,
			"byteLength":16872,
			"byteOffset":9912424,
			"target":34962
		},
		{
			"buffer":0,
			"byteLength":11248,
			"byteOffset":9929296,
			"target":34962
		},
		{
			"buffer":0,
			"byteLength":5624,
			"byteOffset":9940544,
			"target":34962
		},
		{
			"buffer":0,
			"byteLength":11248,
			"byteOffset":9946168,
			"target":34962
		},
		{
			"buffer":0,
			"byteLength":4128,
			"byteOffset":9957416,
			"target":34963
		}
	],
	"samplers":[
		{
			"magFilter":9729,
			"minFilter":9987
		}
	],
	"buffers":[
		{
			"byteLength":9961544,
			"uri":"Mega_Structure_T_shape_scifi_1.bin"
		}
	]
}
