{
	"asset":{
		"generator":"Khronos glTF Blender I/O v4.3.47",
		"version":"2.0"
	},
	"scene":0,
	"scenes":[
		{
			"name":"Scene",
			"nodes":[
				0
			]
		}
	],
	"nodes":[
		{
			"mesh":0,
			"name":"Earth"
		}
	],
	"animations":[
		{
			"channels":[
				{
					"sampler":0,
					"target":{
						"node":0,
						"path":"rotation"
					}
				}
			],
			"name":"EarthAction",
			"samplers":[
				{
					"input":4,
					"interpolation":"LINEAR",
					"output":5
				}
			]
		}
	],
	"materials":[
		{
			"doubleSided":true,
			"emissiveFactor":[
				0.49999991059303284,
				0.49999991059303284,
				0.49999991059303284
			],
			"emissiveTexture":{
				"index":0
			},
			"name":"EarthMaterial",
			"pbrMetallicRoughness":{
				"baseColorTexture":{
					"index":1
				},
				"metallicFactor":0,
				"metallicRoughnessTexture":{
					"index":2
				}
			}
		}
	],
	"meshes":[
		{
			"name":"Esfera geod\u00e9sica",
			"primitives":[
				{
					"attributes":{
						"POSITION":0,
						"NORMAL":1,
						"TEXCOORD_0":2
					},
					"indices":3,
					"material":0
				}
			]
		}
	],
	"textures":[
		{
			"sampler":0,
			"source":0
		},
		{
			"sampler":0,
			"source":1
		},
		{
			"sampler":0,
			"source":2
		}
	],
	"images":[
		{
			"mimeType":"image/jpeg",
			"name":"Night mask",
			"uri":"Night%20mask.jpg"
		},
		{
			"mimeType":"image/jpeg",
			"name":"Earth color mixed",
			"uri":"Earth%20color%20mixed.jpg"
		},
		{
			"mimeType":"image/png",
			"name":"Image",
			"uri":"Image.png"
		}
	],
	"accessors":[
		{
			"bufferView":0,
			"componentType":5126,
			"count":10338,
			"max":[
				0.9998812079429626,
				0.9999827146530151,
				0.9999999403953552
			],
			"min":[
				-0.9998812079429626,
				-0.9999827742576599,
				-0.9999999403953552
			],
			"type":"VEC3"
		},
		{
			"bufferView":1,
			"componentType":5126,
			"count":10338,
			"type":"VEC3"
		},
		{
			"bufferView":2,
			"componentType":5126,
			"count":10338,
			"type":"VEC2"
		},
		{
			"bufferView":3,
			"componentType":5123,
			"count":61440,
			"type":"SCALAR"
		},
		{
			"bufferView":4,
			"componentType":5126,
			"count":145,
			"max":[
				9
			],
			"min":[
				3
			],
			"type":"SCALAR"
		},
		{
			"bufferView":5,
			"componentType":5126,
			"count":145,
			"type":"VEC4"
		}
	],
	"bufferViews":[
		{
			"buffer":0,
			"byteLength":124056,
			"byteOffset":0,
			"target":34962
		},
		{
			"buffer":0,
			"byteLength":124056,
			"byteOffset":124056,
			"target":34962
		},
		{
			"buffer":0,
			"byteLength":82704,
			"byteOffset":248112,
			"target":34962
		},
		{
			"buffer":0,
			"byteLength":122880,
			"byteOffset":330816,
			"target":34963
		},
		{
			"buffer":0,
			"byteLength":580,
			"byteOffset":453696
		},
		{
			"buffer":0,
			"byteLength":2320,
			"byteOffset":454276
		}
	],
	"samplers":[
		{
			"magFilter":9729,
			"minFilter":9987
		}
	],
	"buffers":[
		{
			"byteLength":456596,
			"uri":"planet_earth.bin"
		}
	]
}
