{
	"asset":{
		"generator":"Khronos glTF Blender I/O v4.3.47",
		"version":"2.0"
	},
	"scene":0,
	"scenes":[
		{
			"name":"Scene",
			"nodes":[
				0,
				1
			]
		}
	],
	"nodes":[
		{
			"mesh":0,
			"name":"Cylinder",
			"scale":[
				0.5240350365638733,
				0.5240350365638733,
				0.5240350365638733
			],
			"translation":[
				0,
				0.5434975028038025,
				0
			]
		},
		{
			"name":"Collection",
			"translation":[
				0.5784969329833984,
				0.0063283443450927734,
				0.04724907875061035
			]
		}
	],
	"materials":[
		{
			"doubleSided":true,
			"name":"Material.001",
			"pbrMetallicRoughness":{
				"baseColorTexture":{
					"index":0
				},
				"metallicFactor":0,
				"roughnessFactor":0.5
			}
		},
		{
			"doubleSided":true,
			"name":"Material.002",
			"pbrMetallicRoughness":{
				"baseColorTexture":{
					"index":1
				},
				"metallicFactor":0,
				"roughnessFactor":0.5
			}
		},
		{
			"doubleSided":true,
			"name":"Material.003",
			"pbrMetallicRoughness":{
				"baseColorFactor":[
					0,
					0,
					0,
					1
				],
				"metallicFactor":0,
				"roughnessFactor":0.5
			}
		},
		{
			"doubleSided":true,
			"name":"GroundDirtForest014_2K",
			"pbrMetallicRoughness":{
				"baseColorTexture":{
					"index":2
				},
				"metallicFactor":0,
				"roughnessFactor":0.5
			}
		},
		{
			"doubleSided":true,
			"name":"Material.005",
			"pbrMetallicRoughness":{
				"baseColorTexture":{
					"index":3
				},
				"metallicFactor":0,
				"roughnessFactor":0.5
			}
		}
	],
	"meshes":[
		{
			"name":"Cylinder",
			"primitives":[
				{
					"attributes":{
						"POSITION":0,
						"NORMAL":1,
						"TEXCOORD_0":2
					},
					"indices":3,
					"material":0
				},
				{
					"attributes":{
						"POSITION":4,
						"NORMAL":5,
						"TEXCOORD_0":6
					},
					"indices":7,
					"material":1
				},
				{
					"attributes":{
						"POSITION":8,
						"NORMAL":9,
						"TEXCOORD_0":10
					},
					"indices":11,
					"material":2
				},
				{
					"attributes":{
						"POSITION":12,
						"NORMAL":13,
						"TEXCOORD_0":14
					},
					"indices":15,
					"material":3
				},
				{
					"attributes":{
						"POSITION":16,
						"NORMAL":17,
						"TEXCOORD_0":18
					},
					"indices":19,
					"material":4
				}
			]
		}
	],
	"textures":[
		{
			"sampler":0,
			"source":0
		},
		{
			"sampler":0,
			"source":0
		},
		{
			"sampler":0,
			"source":1
		},
		{
			"sampler":0,
			"source":2
		}
	],
	"images":[
		{
			"mimeType":"image/jpeg",
			"name":"pot_tex",
			"uri":"pot_tex.jpg"
		},
		{
			"mimeType":"image/jpeg",
			"name":"gravelly_sand_diff_500",
			"uri":"gravelly_sand_diff_500.jpg"
		},
		{
			"mimeType":"image/jpeg",
			"name":"leaftexture",
			"uri":"leaftexture.jpg"
		}
	],
	"accessors":[
		{
			"bufferView":0,
			"componentType":5126,
			"count":1537,
			"max":[
				1.7669998407363892,
				2.671720504760742,
				1.7669998407363892
			],
			"min":[
				-1.7669998407363892,
				-1.0561892986297607,
				-1.7669998407363892
			],
			"type":"VEC3"
		},
		{
			"bufferView":1,
			"componentType":5126,
			"count":1537,
			"type":"VEC3"
		},
		{
			"bufferView":2,
			"componentType":5126,
			"count":1537,
			"type":"VEC2"
		},
		{
			"bufferView":3,
			"componentType":5123,
			"count":4602,
			"type":"SCALAR"
		},
		{
			"bufferView":4,
			"componentType":5126,
			"count":1536,
			"max":[
				1.7669998407363892,
				2.671720504760742,
				1.7669998407363892
			],
			"min":[
				-1.7669998407363892,
				-1.0561892986297607,
				-1.7669998407363892
			],
			"type":"VEC3"
		},
		{
			"bufferView":5,
			"componentType":5126,
			"count":1536,
			"type":"VEC3"
		},
		{
			"bufferView":6,
			"componentType":5126,
			"count":1536,
			"type":"VEC2"
		},
		{
			"bufferView":7,
			"componentType":5123,
			"count":4512,
			"type":"SCALAR"
		},
		{
			"bufferView":8,
			"componentType":5126,
			"count":32,
			"max":[
				0.9268044829368591,
				-0.7392628192901611,
				0.9267649054527283
			],
			"min":[
				-0.9268044829368591,
				-0.7414722442626953,
				-0.9268441796302795
			],
			"type":"VEC3"
		},
		{
			"bufferView":9,
			"componentType":5126,
			"count":32,
			"type":"VEC3"
		},
		{
			"bufferView":10,
			"componentType":5126,
			"count":32,
			"type":"VEC2"
		},
		{
			"bufferView":11,
			"componentType":5123,
			"count":90,
			"type":"SCALAR"
		},
		{
			"bufferView":12,
			"componentType":5126,
			"count":352,
			"max":[
				1.4199281930923462,
				1.9811151027679443,
				1.4063780307769775
			],
			"min":[
				-1.3355286121368408,
				1.5971707105636597,
				-1.3938175439834595
			],
			"type":"VEC3"
		},
		{
			"bufferView":13,
			"componentType":5126,
			"count":352,
			"type":"VEC3"
		},
		{
			"bufferView":14,
			"componentType":5126,
			"count":352,
			"type":"VEC2"
		},
		{
			"bufferView":15,
			"componentType":5123,
			"count":1050,
			"type":"SCALAR"
		},
		{
			"bufferView":16,
			"componentType":5126,
			"count":50479,
			"max":[
				3.049466133117676,
				5.308359146118164,
				2.8318047523498535
			],
			"min":[
				-2.8714325428009033,
				-0.39145970344543457,
				-2.8816912174224854
			],
			"type":"VEC3"
		},
		{
			"bufferView":17,
			"componentType":5126,
			"count":50479,
			"type":"VEC3"
		},
		{
			"bufferView":18,
			"componentType":5126,
			"count":50479,
			"type":"VEC2"
		},
		{
			"bufferView":19,
			"componentType":5123,
			"count":92736,
			"type":"SCALAR"
		}
	],
	"bufferViews":[
		{
			"buffer":0,
			"byteLength":18444,
			"byteOffset":0,
			"target":34962
		},
		{
			"buffer":0,
			"byteLength":18444,
			"byteOffset":18444,
			"target":34962
		},
		{
			"buffer":0,
			"byteLength":12296,
			"byteOffset":36888,
			"target":34962
		},
		{
			"buffer":0,
			"byteLength":9204,
			"byteOffset":49184,
			"target":34963
		},
		{
			"buffer":0,
			"byteLength":18432,
			"byteOffset":58388,
			"target":34962
		},
		{
			"buffer":0,
			"byteLength":18432,
			"byteOffset":76820,
			"target":34962
		},
		{
			"buffer":0,
			"byteLength":12288,
			"byteOffset":95252,
			"target":34962
		},
		{
			"buffer":0,
			"byteLength":9024,
			"byteOffset":107540,
			"target":34963
		},
		{
			"buffer":0,
			"byteLength":384,
			"byteOffset":116564,
			"target":34962
		},
		{
			"buffer":0,
			"byteLength":384,
			"byteOffset":116948,
			"target":34962
		},
		{
			"buffer":0,
			"byteLength":256,
			"byteOffset":117332,
			"target":34962
		},
		{
			"buffer":0,
			"byteLength":180,
			"byteOffset":117588,
			"target":34963
		},
		{
			"buffer":0,
			"byteLength":4224,
			"byteOffset":117768,
			"target":34962
		},
		{
			"buffer":0,
			"byteLength":4224,
			"byteOffset":121992,
			"target":34962
		},
		{
			"buffer":0,
			"byteLength":2816,
			"byteOffset":126216,
			"target":34962
		},
		{
			"buffer":0,
			"byteLength":2100,
			"byteOffset":129032,
			"target":34963
		},
		{
			"buffer":0,
			"byteLength":605748,
			"byteOffset":131132,
			"target":34962
		},
		{
			"buffer":0,
			"byteLength":605748,
			"byteOffset":736880,
			"target":34962
		},
		{
			"buffer":0,
			"byteLength":403832,
			"byteOffset":1342628,
			"target":34962
		},
		{
			"buffer":0,
			"byteLength":185472,
			"byteOffset":1746460,
			"target":34963
		}
	],
	"samplers":[
		{
			"magFilter":9729,
			"minFilter":9987
		}
	],
	"buffers":[
		{
			"byteLength":1931932,
			"uri":"pot_plant_1.bin"
		}
	]
}
